{"title":"Comedy Nights With Kapil - Heartless Shekhar, Adhyan &amp; Alian","uid":9527616,"size":302597501,"categoryP":"video","categoryS":"tv_shows","magnet":"?xt=urn:btih:0630794e45e773260c09b17315e8e092d80f7dca&amp;dn=Comedy+Nights+With+Kapil+-+Heartless+Shekhar%2C+Adhyan+%26amp%3B+Alian&amp;tr=udp%3A%2F%2Ftracker.openbittorrent.com%3A80&amp;tr=udp%3A%2F%2Fopen.demonii.com%3A1337&amp;tr=udp%3A%2F%2Ftracker.coppersurfer.tk%3A6969&amp;tr=udp%3A%2F%2Fexodus.desync.com%3A6969","seeders":1,"leechers":0,"uploader":"ashish.p","files":1,"time":1390777583,"description":"General \nComplete name : Comedy Nights With Kapil - Heartless Shekhar, Adhyan &amp; Aliana - 26th Jan 2014 - HQ 360p\nFormat : MPEG-4 \nFormat profile : Base Media \nCodec ID : isom \nFile size : 289 MiB \nDuration : 1h 2mn \nOverall bit rate mode : Variable \nOverall bit rate : 642 Kbps \nTagged date : UTC 2014-01-26 21:29:38 \nWriting application : Lavf53.24.2 \n\nVideo \n\nID : 1 \nFormat : AVC \nFormat/Info : Advanced Video Codec \nFormat profile : &lt;a class=&quot;__cf_email__&quot; href=&quot;/cdn-cgi/l/email-protection&quot; data-cfemail=&quot;d795b6a4b2bbbeb9b2979be4f9e7&quot;&gt;[email&amp;#160;protected]&lt;/a&gt;&lt;script cf-hash='f9e31' type=&quot;text/javascript&quot;&gt;\n/* &lt;![CDATA[ */!function(){try{var t=&quot;currentScript&quot;in document?document.currentScript:function(){for(var t=document.getElementsByTagName(&quot;script&quot;),e=t.length;e--;)if(t[e].getAttribute(&quot;cf-hash&quot;))return t[e]}();if(t&amp;&amp;t.previousSibling){var e,r,n,i,c=t.previousSibling,a=c.getAttribute(&quot;data-cfemail&quot;);if(a){for(e=&quot;&quot;,r=parseInt(a.substr(0,2),16),n=2;a.length-n;n+=2)i=parseInt(a.substr(n,2),16)^r,e+=String.fromCharCode(i);e=document.createTextNode(e),c.parentNode.replaceChild(e,c)}}}catch(u){}}();/* ]]&gt; */&lt;/script&gt; \nFormat settings, CABAC : No \nFormat settings, ReFrames : 1 frame \nCodec ID : avc1 \nCodec ID/Info : Advanced Video Coding \nDuration : 1h 2mn \nBit rate : 540 Kbps \nWidth : 640 pixels \nHeight : 360 pixels \nDisplay aspect ratio : 16:9 \nFrame rate mode : Constant \nFrame rate : 25.000 fps \nColor space : YUV \nChroma subsampling : 4:2:0 \nBit depth : 8 bits \nScan type : Progressive \nBits/(Pixel*Frame) : 0.094 \nStream size : 243 MiB (84%) \n\nAudio \n\nID : 2 \nFormat : AAC \nFormat/Info : Advanced Audio Codec \nFormat profile : LC \nCodec ID : 40 \nDuration : 1h 2mn \nDuration_FirstFrame : 480ms \nBit rate mode : Variable \nBit rate : 96.0 Kbps \nMaximum bit rate : 102 Kbps \nChannel(s) : 2 channels \nChannel positions : Front: L R \nSampling rate : 44.1 KHz \nCompression mode : Lossy \nStream size : 43.2 MiB (15%) \n","torrent":{"xt":"urn:btih:0630794e45e773260c09b17315e8e092d80f7dca","amp;dn":"Comedy+Nights+With+Kapil+-+Heartless+Shekhar%2C+Adhyan+%26amp%3B+Alian","amp;tr":["udp%3A%2F%2Ftracker.openbittorrent.com%3A80","udp%3A%2F%2Fopen.demonii.com%3A1337","udp%3A%2F%2Ftracker.coppersurfer.tk%3A6969","udp%3A%2F%2Fexodus.desync.com%3A6969"],"infoHash":"0630794e45e773260c09b17315e8e092d80f7dca","infoHashBuffer":{"type":"Buffer","data":[6,48,121,78,69,231,115,38,12,9,177,115,21,232,224,146,216,15,125,202]},"announce":[],"urlList":[]}}